<?xml version="1.0" encoding="utf-8"?>
<!-- Generator: Adobe Illustrator 16.0.0, SVG Export Plug-In . SVG Version: 6.00 Build 0)  -->
<!DOCTYPE svg PUBLIC "-//W3C//DTD SVG 1.1//EN" "http://www.w3.org/Graphics/SVG/1.1/DTD/svg11.dtd">
<svg version="1.1" id="Layer_1" xmlns="http://www.w3.org/2000/svg" xmlns:xlink="http://www.w3.org/1999/xlink" x="0px" y="0px"
	 width="240px" height="60px" viewBox="0 0 240 60" enable-background="new 0 0 240 60" xml:space="preserve">
<g>
	<path fill="#CA2027" d="M39.902,16.169l-25.093,0.142c-0.044,0-0.089,0.004-0.132,0.011l-2.313-6.665
		c-0.166-0.474-0.529-0.853-0.996-1.037l-8.02-3.15C2.465,5.124,1.467,5.559,1.12,6.44C0.773,7.323,1.207,8.321,2.091,8.669
		l7.283,2.861l2.772,9.167l0.108,2.18h0.441h3.94h2.234c0.509-2.7,1.839-2.815,3.398-2.815c2,0,3.619,1.395,3.619,3.395
		c0,2.001-1.619,3.507-3.619,3.507c-1.506,0-2.852-0.973-3.399-2.28l-0.125-0.057v0.049h-6.325h-1.681H7.944v0.9h4.531l0.163,2.7
		h17.779c0.494-1.8,1.837-2.498,3.416-2.498c2,0,3.619,1.582,3.619,3.581c0,1.999-1.62,3.741-3.619,3.741
		c-1.837,0-3.354-2.123-3.587-3.022h-0.039H12.744H6.583H3.444v0.899H12.8l0.169,2.57l9.46-0.063
		c0.456-1.478,1.831-2.584,3.458-2.584c1.999,0,3.62,1.604,3.62,3.604s-1.622,3.598-3.62,3.598c-1.647,0-3.035-0.824-3.472-2.625
		h-0.072v0.06v-0.06h-9.249H8.49H7.044v0.899h6.108l0.113,1.776c0,0.066,0.001,0.127,0.004,0.193l-2.574,7.141
		c-0.156,0.441-0.091,1.264,0.177,1.646c0.268,0.381,0.705,0.943,1.172,0.943h1.323c-0.819,0-1.323,1.777-1.323,3.102
		c0,2.84,2.313,4.986,5.156,4.986c2.843,0,5.154-2.063,5.154-4.902c0-1.326-0.501-3.186-1.322-3.186h11.24
		c-0.82,0-1.325,1.777-1.325,3.102c0,2.84,2.313,4.986,5.156,4.986c2.844,0,5.156-2.063,5.156-4.902
		c0-1.326-0.503-3.186-1.325-3.186h1.611c0.793,0,1.433-1.008,1.433-1.801c0-0.791-0.642-1.799-1.433-1.799H14.081l0.987-2.848
		c1.402,1.253,3.467,1.946,5.629,1.946h16.401c3.873,0,7.712-2.429,7.712-5.58l2.103-17.863
		C46.913,16.979,43.773,16.169,39.902,16.169z M35.65,48.596c0.164-0.037,0.333-0.056,0.508-0.056c1.29,0,2.334,1.044,2.334,2.333
		c0,1.291-1.044,2.336-2.334,2.336c-1.061,0-1.956-0.709-2.239-1.68c-0.069-0.215-0.106-0.448-0.106-0.688
		C33.813,49.732,34.603,48.807,35.65,48.596z M14.935,50.502c0.125-0.842,0.708-1.533,1.487-1.816
		c0.254-0.094,0.53-0.146,0.816-0.146c1.289,0,2.334,1.044,2.334,2.333c0,1.291-1.045,2.336-2.334,2.336
		c-1.289,0-2.334-1.045-2.334-2.336C14.904,50.747,14.915,50.624,14.935,50.502z"/>
	<g>
		<circle fill="none" cx="36.104" cy="50.843" r="2.29"/>
		<path fill="none" d="M17.2,53.133c1.263,0,2.292-1.029,2.292-2.292c0-1.264-1.03-2.29-2.292-2.29c-1.264,0-2.29,1.026-2.29,2.29
			C14.91,52.105,15.936,53.133,17.2,53.133z"/>
		<g>
			<circle fill="none" cx="36.104" cy="50.843" r="2.29"/>
			<path fill="none" d="M17.2,53.133c1.263,0,2.292-1.029,2.292-2.292c0-1.264-1.03-2.29-2.292-2.29c-1.264,0-2.29,1.026-2.29,2.29
				C14.91,52.105,15.936,53.133,17.2,53.133z"/>
		</g>
		<circle fill="#CA2027" cx="25.888" cy="34.485" r="1.905"/>
		<path fill="#CA2027" d="M35.737,29.32c0-1.05-0.853-1.903-1.904-1.903c-1.05,0-1.904,0.853-1.904,1.903
			c0,1.055,0.854,1.907,1.904,1.907C34.884,31.227,35.737,30.375,35.737,29.32z"/>
		<g>
			<path fill="none" d="M17.2,53.133c1.263,0,2.292-1.029,2.292-2.292c0-1.264-1.03-2.29-2.292-2.29c-1.264,0-2.29,1.026-2.29,2.29
				C14.91,52.105,15.936,53.133,17.2,53.133z"/>
			<circle fill="none" cx="36.104" cy="50.843" r="2.29"/>
		</g>
		<circle fill="#CA2027" cx="22.236" cy="23.185" r="1.905"/>
	</g>
</g>
<g>
	<g>
		<g>
			<path d="M60.965,20.629h-4.229c-0.705,0-1.057-0.353-1.057-1.058v-2.114c0-0.705,0.353-1.058,1.057-1.058h12.686
				c0.705,0,1.058,0.353,1.058,1.058v2.114c0,0.705-0.353,1.058-1.058,1.058h-4.228v24.314c0,0.705-0.353,1.058-1.058,1.058h-2.114
				c-0.705,0-1.057-0.353-1.057-1.058V20.629z"/>
			<path d="M85.279,40.715c0-0.873-0.31-1.621-0.93-2.24c-0.621-0.621-1.368-0.932-2.241-0.932h-3.171v7.4
				c0,0.705-0.353,1.058-1.057,1.058h-2.114c-0.705,0-1.058-0.353-1.058-1.058v-7.4h-1.057c-0.705,0-1.058-0.352-1.058-1.057v-2.113
				c0-0.706,0.353-1.059,1.058-1.059h1.057V17.458c0-0.705,0.353-1.058,1.058-1.058h6.343c2.043,0,3.788,0.723,5.233,2.167
				c1.444,1.445,2.167,3.189,2.167,5.232v6.343c0,2.044-0.719,3.819-2.156,5.327c1.438,1.453,2.156,3.201,2.156,5.244v4.229
				c0,0.705-0.353,1.058-1.057,1.058h-2.114c-0.705,0-1.057-0.353-1.057-1.058V40.715z M85.279,23.8c0-0.874-0.31-1.621-0.93-2.241
				c-0.621-0.62-1.368-0.93-2.241-0.93h-3.171v12.685h3.171c0.874,0,1.621-0.311,2.241-0.93c0.62-0.619,0.93-1.367,0.93-2.241V23.8z
				"/>
			<path d="M106.422,46.001c-4.088,0-7.577-1.445-10.465-4.335c-2.89-2.889-4.334-6.377-4.334-10.466
				c0-4.087,1.444-7.576,4.334-10.465c2.889-2.89,6.377-4.334,10.465-4.334s7.576,1.445,10.466,4.334s4.335,6.378,4.335,10.465
				c0,4.089-1.445,7.577-4.335,10.466C113.998,44.556,110.51,46.001,106.422,46.001z M113.896,38.675
				c2.064-2.065,3.097-4.556,3.097-7.475c0-2.917-1.032-5.409-3.097-7.474c-2.065-2.065-4.557-3.097-7.475-3.097
				c-2.917,0-5.409,1.032-7.474,3.097c-2.065,2.065-3.098,4.557-3.098,7.474c0,2.919,1.032,5.409,3.098,7.475
				c2.065,2.065,4.556,3.098,7.474,3.098C109.34,41.772,111.831,40.74,113.896,38.675z"/>
			<path d="M138.137,23.8v21.143c0,0.705-0.354,1.058-1.058,1.058h-2.114c-0.705,0-1.057-0.353-1.057-1.058V23.8
				c0-0.874-0.311-1.621-0.931-2.241c-0.62-0.62-1.367-0.93-2.241-0.93s-1.621,0.31-2.241,0.93c-0.62,0.621-0.93,1.368-0.93,2.241
				v21.143c0,0.705-0.353,1.058-1.058,1.058h-2.113c-0.705,0-1.059-0.353-1.059-1.058V23.8c0-2.043,0.723-3.788,2.168-5.232
				c1.444-1.445,3.188-2.167,5.232-2.167s3.788,0.723,5.232,2.167C137.414,20.013,138.137,21.757,138.137,23.8z"/>
			<path d="M144.479,38.6c0,0.875,0.31,1.622,0.931,2.242c0.619,0.621,1.367,0.931,2.241,0.931c0.873,0,1.62-0.31,2.24-0.931
				c0.62-0.62,0.931-1.367,0.931-2.242c0-0.703,0.353-1.057,1.057-1.057h2.114c0.705,0,1.058,0.354,1.058,1.057
				c0,2.045-0.723,3.789-2.168,5.233c-1.443,1.446-3.188,2.168-5.231,2.168c-2.044,0-3.788-0.722-5.233-2.168
				c-1.445-1.444-2.168-3.188-2.168-5.233V23.8c0-2.043,0.723-3.788,2.168-5.232s3.189-2.167,5.233-2.167
				c2.043,0,3.788,0.723,5.231,2.167c1.445,1.445,2.168,3.189,2.168,5.232c0,0.706-0.353,1.058-1.058,1.058h-2.114
				c-0.704,0-1.057-0.352-1.057-1.058c0-0.874-0.311-1.621-0.931-2.241c-0.62-0.62-1.367-0.93-2.24-0.93
				c-0.874,0-1.622,0.31-2.241,0.93c-0.621,0.621-0.931,1.368-0.931,2.241V38.6z"/>
			<path d="M159.279,33.314V23.8c0-2.043,0.723-3.788,2.167-5.232s3.188-2.167,5.233-2.167c2.043,0,3.787,0.723,5.232,2.167
				s2.167,3.189,2.167,5.232v21.143c0,0.705-0.353,1.058-1.057,1.058h-2.114c-0.705,0-1.058-0.353-1.058-1.058v-7.4h-6.343v7.4
				c0,0.705-0.354,1.058-1.057,1.058h-2.115c-0.705,0-1.057-0.353-1.057-1.058v-7.4h-1.057c-0.706,0-1.059-0.352-1.059-1.057v-2.113
				c0-0.706,0.353-1.059,1.059-1.059H159.279z M169.851,33.314V23.8c0-0.874-0.31-1.621-0.93-2.241
				c-0.62-0.62-1.368-0.93-2.241-0.93c-0.875,0-1.621,0.31-2.242,0.93c-0.619,0.621-0.93,1.368-0.93,2.241v9.514H169.851z"/>
			<path d="M188.88,40.715c0-0.873-0.312-1.621-0.931-2.24c-0.621-0.621-1.367-0.932-2.241-0.932h-3.171v7.4
				c0,0.705-0.354,1.058-1.059,1.058h-2.113c-0.705,0-1.058-0.353-1.058-1.058v-7.4h-1.058c-0.704,0-1.057-0.352-1.057-1.057v-2.113
				c0-0.706,0.353-1.059,1.057-1.059h1.058V17.458c0-0.705,0.353-1.058,1.058-1.058h6.343c2.044,0,3.788,0.723,5.232,2.167
				c1.445,1.445,2.167,3.189,2.167,5.232v6.343c0,2.044-0.719,3.819-2.156,5.327c1.438,1.453,2.156,3.201,2.156,5.244v4.229
				c0,0.705-0.352,1.058-1.057,1.058h-2.114c-0.704,0-1.057-0.353-1.057-1.058V40.715z M188.88,23.8
				c0-0.874-0.312-1.621-0.931-2.241c-0.621-0.62-1.367-0.93-2.241-0.93h-3.171v12.685h3.171c0.874,0,1.62-0.311,2.241-0.93
				c0.619-0.619,0.931-1.367,0.931-2.241V23.8z"/>
			<path d="M200.508,20.629h-4.229c-0.705,0-1.058-0.353-1.058-1.058v-2.114c0-0.705,0.353-1.058,1.058-1.058h12.686
				c0.705,0,1.058,0.353,1.058,1.058v2.114c0,0.705-0.353,1.058-1.058,1.058h-4.229v24.314c0,0.705-0.352,1.058-1.057,1.058h-2.115
				c-0.705,0-1.057-0.353-1.057-1.058V20.629z"/>
		</g>
		<g>
			<path d="M108.973,49.996c0.336,0.146,0.65,0.365,0.942,0.657l-0.876,0.876c-0.293-0.35-0.701-0.525-1.227-0.525
				s-0.862,0.124-1.008,0.373c-0.146,0.248-0.146,0.459,0,0.635c0.146,0.175,0.482,0.307,1.008,0.395
				c0.555,0.059,1.059,0.24,1.51,0.547c0.453,0.307,0.68,0.796,0.68,1.468c0,0.526-0.241,0.978-0.725,1.358
				c-0.484,0.379-1.046,0.568-1.688,0.568c-0.61,0-1.12-0.086-1.528-0.262c-0.41-0.176-0.76-0.409-1.053-0.701l0.877-0.876
				c0.292,0.351,0.788,0.555,1.49,0.612c0.584,0,0.947-0.124,1.092-0.371c0.145-0.249,0.145-0.496,0-0.745s-0.508-0.401-1.092-0.46
				c-0.526-0.059-1.009-0.219-1.447-0.482c-0.438-0.262-0.656-0.715-0.656-1.357c0-0.582,0.249-1.047,0.747-1.399
				s1.009-0.528,1.534-0.528C108.164,49.777,108.637,49.85,108.973,49.996z"/>
			<path d="M111.785,55.404c-0.629-0.629-0.941-1.41-0.941-2.342c0-0.934,0.313-1.716,0.941-2.344
				c0.627-0.627,1.408-0.941,2.344-0.941c0.935,0,1.715,0.314,2.344,0.941c0.627,0.628,0.941,1.41,0.941,2.344
				c0,0.936-0.314,1.716-0.941,2.344c-0.629,0.628-1.409,0.941-2.344,0.941C113.193,56.348,112.412,56.033,111.785,55.404z
				 M114.133,55.121c0.582,0,1.055-0.197,1.42-0.59c0.364-0.396,0.547-0.885,0.547-1.469s-0.183-1.072-0.547-1.467
				c-0.365-0.395-0.842-0.592-1.429-0.592c-0.581,0-1.054,0.197-1.419,0.592s-0.548,0.883-0.548,1.467s0.183,1.073,0.548,1.469
				C113.07,54.924,113.546,55.121,114.133,55.121z"/>
			<path d="M119.718,49.777v5.344h3.505v1.227h-4.818v-6.57H119.718z"/>
			<path d="M125.518,49.777v3.811c0,0.496,0.146,0.861,0.438,1.096c0.293,0.234,0.658,0.35,1.096,0.35s0.803-0.115,1.096-0.35
				c0.291-0.234,0.438-0.6,0.438-1.096v-3.811h1.314v4.161c0,0.672-0.27,1.241-0.811,1.709s-1.219,0.7-2.037,0.7
				c-0.816,0-1.496-0.232-2.037-0.7c-0.54-0.468-0.811-1.037-0.811-1.709v-4.161H125.518z"/>
			<path d="M136.68,49.777v1.227h-2.191v5.344h-1.313v-5.344h-2.19v-1.227H136.68z"/>
			<path d="M137.656,49.773h1.31v6.574h-1.31V49.773z"/>
			<path d="M140.894,55.404c-0.628-0.629-0.942-1.41-0.942-2.342c0-0.934,0.314-1.716,0.942-2.344
				c0.628-0.627,1.409-0.941,2.343-0.941c0.935,0,1.717,0.314,2.345,0.941c0.628,0.628,0.94,1.41,0.94,2.344
				c0,0.936-0.313,1.716-0.94,2.344s-1.41,0.941-2.345,0.941C142.303,56.348,141.521,56.033,140.894,55.404z M143.241,55.121
				c0.581,0,1.054-0.197,1.419-0.59c0.365-0.396,0.548-0.885,0.548-1.469s-0.183-1.072-0.548-1.467s-0.84-0.592-1.428-0.592
				c-0.58,0-1.055,0.197-1.42,0.592c-0.364,0.395-0.547,0.883-0.547,1.467s0.183,1.073,0.547,1.469
				C142.178,54.924,142.654,55.121,143.241,55.121z"/>
			<path d="M147.499,56.348v-6.57h0.438l4.117,4.117v-4.117h1.314v6.57h-0.482l-4.074-4.073v4.073H147.499z"/>
			<path d="M158.289,49.996c0.335,0.146,0.648,0.365,0.941,0.657l-0.877,0.876c-0.292-0.35-0.7-0.525-1.227-0.525
				c-0.525,0-0.861,0.124-1.007,0.373c-0.146,0.248-0.146,0.459,0,0.635c0.146,0.175,0.481,0.307,1.007,0.395
				c0.555,0.059,1.059,0.24,1.512,0.547s0.68,0.796,0.68,1.468c0,0.526-0.242,0.978-0.726,1.358
				c-0.483,0.379-1.046,0.568-1.688,0.568c-0.61,0-1.121-0.086-1.529-0.262s-0.76-0.409-1.051-0.701l0.875-0.876
				c0.293,0.351,0.789,0.555,1.49,0.612c0.584,0,0.948-0.124,1.092-0.371c0.146-0.249,0.146-0.496,0-0.745
				c-0.144-0.249-0.508-0.401-1.092-0.46c-0.525-0.059-1.008-0.219-1.445-0.482c-0.438-0.262-0.657-0.715-0.657-1.357
				c0-0.582,0.249-1.047,0.747-1.399s1.01-0.528,1.535-0.528C157.479,49.777,157.952,49.85,158.289,49.996z"/>
			<path d="M163.559,56.348v-6.57h2.864c1.533,0,2.3,0.631,2.3,1.893c0,1.309-0.765,1.963-2.295,1.963h-1.555v2.715H163.559z
				 M164.873,52.406h1.838c0.529-0.01,0.801-0.25,0.816-0.723c-0.016-0.432-0.282-0.657-0.803-0.675h-1.852V52.406z"/>
			<path d="M170.689,49.777l1.866,4.814l1.901-4.814h1.401l-2.624,6.57h-1.314l-2.633-6.57H170.689z"/>
			<path d="M182.311,49.777v1.227h-2.189v5.344h-1.314v-5.344h-2.19v-1.227H182.311z"/>
			<path d="M187.682,49.777v5.344h3.504v1.227h-4.818v-6.57H187.682z"/>
			<path d="M197.629,49.777v1.227h-2.189v5.344h-1.314v-5.344h-2.19v-1.227H197.629z"/>
			<path d="M198.606,56.348v-6.574h2.532c2.043,0,3.066,1.096,3.066,3.289c0,2.19-1.023,3.285-3.066,3.285H198.606z M201.139,55.039
				c1.164-0.004,1.748-0.662,1.752-1.977c-0.004-1.314-0.588-1.971-1.752-1.971h-1.219v3.947H201.139z"/>
		</g>
	</g>
</g>
</svg>
